<svg width="51" height="51" viewBox="0 0 51 51" fill="none" xmlns="http://www.w3.org/2000/svg">
<circle cx="25.2276" cy="25.2276" r="25.2276" fill="#DFABFF"/>
<path d="M23.3213 31.5918C23.3486 29.9648 23.5332 28.6797 23.875 27.7363C24.2168 26.793 24.9141 25.7471 25.9668 24.5986L28.6533 21.8301C29.8018 20.5312 30.376 19.1367 30.376 17.6465C30.376 16.2109 30 15.0898 29.248 14.2832C28.4961 13.4629 27.4023 13.0527 25.9668 13.0527C24.5723 13.0527 23.4512 13.4219 22.6035 14.1602C21.7559 14.8984 21.332 15.8896 21.332 17.1338H17.5381C17.5654 14.9189 18.3516 13.1348 19.8965 11.7812C21.4551 10.4141 23.4785 9.73047 25.9668 9.73047C28.5508 9.73047 30.5605 10.4277 31.9961 11.8223C33.4453 13.2031 34.1699 15.1035 34.1699 17.5234C34.1699 19.916 33.0625 22.2744 30.8477 24.5986L28.6123 26.8135C27.6143 27.9209 27.1152 29.5137 27.1152 31.5918H23.3213ZM23.1572 38.0928C23.1572 37.4775 23.3418 36.9648 23.7109 36.5547C24.0938 36.1309 24.6543 35.9189 25.3926 35.9189C26.1309 35.9189 26.6914 36.1309 27.0742 36.5547C27.457 36.9648 27.6484 37.4775 27.6484 38.0928C27.6484 38.708 27.457 39.2207 27.0742 39.6309C26.6914 40.0273 26.1309 40.2256 25.3926 40.2256C24.6543 40.2256 24.0938 40.0273 23.7109 39.6309C23.3418 39.2207 23.1572 38.708 23.1572 38.0928Z" fill="black"/>
</svg>
